<?xml version="1.0" standalone="no"?>
<!DOCTYPE svg PUBLIC "-//W3C//DTD SVG 20010904//EN"
 "http://www.w3.org/TR/2001/REC-SVG-20010904/DTD/svg10.dtd">
<svg version="1.0" xmlns="http://www.w3.org/2000/svg"
 width="338.000000pt" height="126.000000pt" viewBox="0 0 338.000000 126.000000"
 preserveAspectRatio="xMidYMid meet">
<metadata>
Created by potrace 1.16, written by Peter Selinger 2001-2019
</metadata>
<g transform="translate(0.000000,126.000000) scale(0.100000,-0.100000)"
fill="#000000" stroke="none">
<path d="M0 630 l0 -630 1690 0 1690 0 0 630 0 630 -1690 0 -1690 0 0 -630z
m411 528 c29 -40 81 -107 114 -148 34 -41 114 -144 179 -228 l118 -152 -85
-108 c-46 -59 -101 -130 -123 -158 -21 -28 -90 -117 -153 -197 l-114 -147
-164 0 c-89 0 -163 3 -163 8 0 13 28 49 175 232 252 312 295 365 295 370 0 3
-106 137 -235 299 -129 161 -235 295 -235 297 0 2 76 4 169 4 l168 0 54 -72z
m831 0 c-32 -40 -130 -164 -219 -276 -89 -111 -166 -203 -170 -204 -8 -2 -97
103 -139 164 l-26 37 134 175 133 175 173 0 172 1 -58 -72z m266 -280 c17 -17
15 -38 -5 -38 -9 0 -32 -14 -50 -32 l-33 -32 0 32 c0 27 -4 32 -25 32 l-25 0
0 -159 0 -160 55 -48 c31 -26 67 -52 81 -58 l26 -10 -21 -19 c-17 -15 -24 -17
-33 -8 -7 7 -16 12 -20 12 -4 0 -8 -54 -8 -120 l0 -120 -60 0 -60 0 0 365 0
365 60 0 c40 0 60 -4 60 -12 0 -8 6 -6 17 5 20 20 25 21 41 5z m172 -53 l69
-60 0 -136 1 -136 -71 -62 c-39 -33 -74 -61 -77 -61 -4 0 -47 40 -96 89 -61
62 -87 94 -84 107 3 15 22 2 94 -68 l89 -86 53 47 52 48 0 121 0 122 -41 38
c-68 61 -64 62 -145 -19 -72 -71 -74 -75 -74 -122 0 -43 -2 -48 -15 -37 -9 8
-15 30 -15 59 0 44 3 49 87 133 48 49 92 87 96 85 5 -1 40 -30 77 -62z m435
21 l50 -44 -31 -38 c-16 -21 -35 -39 -40 -41 -5 -2 -25 10 -44 26 -28 23 -32
32 -23 42 10 10 16 9 31 -4 23 -21 36 -21 51 -3 9 11 5 19 -20 40 l-31 26 -76
-69 c-143 -129 -133 -110 -130 -247 3 -115 4 -119 26 -122 22 -3 22 -2 22 126
0 116 2 131 20 147 20 18 20 17 20 -143 l0 -162 -60 0 -60 0 0 149 0 149 111
106 c61 58 116 106 122 106 7 0 35 -20 62 -44z m345 -85 l25 -22 -35 -30 c-19
-16 -82 -67 -138 -112 l-104 -81 54 -48 c33 -30 60 -46 71 -44 25 6 34 -22 14
-41 -18 -19 -14 -21 -109 62 l-58 49 0 136 1 135 72 62 72 61 55 -52 c30 -29
66 -63 80 -75z m49 67 c54 -47 61 -57 61 -90 0 -35 -6 -42 -105 -123 -80 -66
-110 -85 -125 -80 -21 7 -23 5 148 144 57 46 57 76 0 122 -24 19 -47 33 -52
31 -5 -2 -15 -1 -23 2 -11 4 -11 10 -3 26 16 30 33 25 99 -32z m251 37 c14
-17 5 -35 -19 -35 -9 0 -32 -15 -50 -34 -24 -25 -32 -41 -29 -62 3 -30 5 -29
183 145 5 4 125 -92 125 -100 0 -10 -61 -84 -69 -84 -4 0 -26 16 -49 36 -31
26 -39 38 -30 47 8 8 19 4 43 -14 29 -22 34 -23 45 -9 12 14 8 22 -23 53 l-37
37 -57 -57 -56 -56 45 -29 c25 -15 75 -46 112 -68 l65 -40 1 -65 0 -65 -56
-49 c-53 -47 -56 -48 -74 -31 -15 14 -17 21 -9 31 6 8 15 11 20 8 5 -3 27 9
49 26 30 24 40 39 40 61 0 16 -3 29 -7 29 -4 0 -47 -39 -95 -87 l-87 -86 -58
48 c-32 27 -62 52 -67 56 -9 8 36 83 56 95 4 3 31 -14 58 -37 41 -35 48 -44
35 -51 -10 -6 -25 -1 -48 16 -40 31 -43 31 -51 9 -7 -17 48 -83 69 -83 6 0 34
24 63 53 l52 53 -57 34 c-32 19 -84 51 -115 72 l-58 39 0 53 c0 51 2 55 54
105 59 55 67 59 86 36z m400 0 c14 -17 5 -35 -19 -35 -9 0 -32 -15 -50 -34
-24 -25 -32 -41 -29 -62 3 -27 5 -26 95 60 103 98 89 96 172 24 l43 -37 -23
-33 c-45 -63 -45 -63 -93 -21 -33 28 -41 41 -34 51 8 10 18 7 46 -14 28 -22
36 -24 42 -13 14 24 12 28 -25 60 l-35 31 -56 -55 -55 -56 43 -27 c24 -15 76
-47 116 -72 l72 -45 0 -57 0 -57 -60 -53 c-59 -50 -62 -52 -80 -35 -21 19 -18
35 6 35 8 0 33 14 55 32 29 23 39 39 39 60 0 15 -3 28 -7 28 -4 0 -46 -39 -95
-86 l-88 -86 -57 48 c-32 26 -62 51 -67 55 -8 7 49 99 62 99 4 -1 29 -21 57
-45 41 -36 47 -45 33 -50 -11 -4 -30 3 -51 19 -31 23 -36 25 -47 11 -11 -13
-8 -21 20 -50 19 -19 39 -35 45 -35 6 0 34 24 63 53 l53 54 -73 43 c-158 94
-158 95 -158 153 0 49 3 54 52 104 55 56 68 62 88 38z m-2162 -455 c77 -96
176 -220 220 -275 45 -54 80 -101 78 -102 -6 -7 -323 -11 -332 -5 -16 12 -262
328 -271 349 -5 13 147 213 159 210 4 -1 69 -81 146 -177z m1546 120 c14 -22
26 -43 26 -48 0 -13 -121 -108 -133 -104 -23 7 -155 138 -147 146 11 11 65
-22 109 -68 19 -20 40 -36 45 -36 6 1 29 16 51 35 38 32 39 35 23 51 -16 16
-19 16 -53 -11 -26 -19 -40 -24 -48 -16 -7 7 2 22 34 50 24 22 49 40 55 41 6
0 23 -18 38 -40z"/>
<path d="M90 1196 c0 -2 101 -131 225 -285 l225 -282 -143 -177 c-259 -320
-307 -381 -307 -386 0 -4 55 -6 123 -6 l122 0 40 54 c50 67 225 291 323 414
41 52 71 99 69 107 -3 7 -79 107 -168 222 -90 114 -185 238 -213 276 l-51 67
-122 0 c-68 0 -123 -2 -123 -4z"/>
<path d="M921 1123 c-34 -43 -90 -115 -126 -161 l-65 -84 56 -71 c31 -40 60
-72 64 -72 10 0 370 446 370 458 0 4 -54 7 -119 7 l-120 0 -60 -77z"/>
<path d="M2267 792 l-57 -47 0 -87 c0 -49 3 -88 6 -88 6 0 133 98 183 142 l33
29 -23 21 c-13 12 -38 34 -54 49 l-31 29 -57 -48z"/>
<path d="M788 456 l-57 -74 37 -49 c38 -51 53 -70 155 -199 l59 -74 125 0 125
0 -39 48 c-21 26 -105 132 -187 235 -83 103 -152 187 -156 187 -3 0 -31 -33
-62 -74z"/>
</g>
</svg>
